<svg xmlns="http://www.w3.org/2000/svg" viewBox="0 0 32 32" width="32" height="32" role="img" aria-label="Sproutify Trellis">
  <!-- Brand tile: yale-blue, matching the sidebar background -->
  <rect width="32" height="32" rx="7" fill="#0B4A6B"/>
  <!-- Sprout mark (Lucide "sprout", same glyph as the in-app logo).
       Stroke weight bumped so it stays legible at 16px. -->
  <g transform="translate(4.5 4)" fill="none" stroke="#34D399" stroke-width="2.5"
     stroke-linecap="round" stroke-linejoin="round">
    <path d="M7 20h10"/>
    <path d="M10 20c5.5-2.5.8-6.4 3-10"/>
    <path d="M9.5 9.4c1.1.8 1.8 2.2 2.3 3.7-2 .4-3.5.4-4.8-.3-1.2-.6-2.3-1.9-3-4.2 2.8-.5 4.4 0 5.5.8z"/>
    <path d="M14.1 6a7 7 0 0 0-1.1 4c1.9-.1 3.3-.6 4.3-1.4 1-1 1.6-2.3 1.7-4.6-2.7.1-4 1-4.9 2z"/>
  </g>
</svg>
